<?xml version="1.0" encoding="UTF-8" standalone="no"?>
<!-- Created with Inkscape (http://www.inkscape.org/) -->

<svg
   width="97.956017mm"
   height="19.70792mm"
   viewBox="0 0 97.956017 19.70792"
   version="1.1"
   id="svg1"
   inkscape:version="1.4 (1:1.4+202410161351+e7c3feb100)"
   sodipodi:docname="logo.svg"
   xmlns:inkscape="http://www.inkscape.org/namespaces/inkscape"
   xmlns:sodipodi="http://sodipodi.sourceforge.net/DTD/sodipodi-0.dtd"
   xmlns="http://www.w3.org/2000/svg"
   xmlns:svg="http://www.w3.org/2000/svg">
  <sodipodi:namedview
     id="namedview1"
     pagecolor="#ffffff"
     bordercolor="#666666"
     borderopacity="1.0"
     inkscape:showpageshadow="2"
     inkscape:pageopacity="0.0"
     inkscape:pagecheckerboard="0"
     inkscape:deskcolor="#d1d1d1"
     inkscape:document-units="mm"
     inkscape:zoom="0.54627927"
     inkscape:cx="-436.58988"
     inkscape:cy="-268.17785"
     inkscape:window-width="1920"
     inkscape:window-height="1136"
     inkscape:window-x="0"
     inkscape:window-y="27"
     inkscape:window-maximized="1"
     inkscape:current-layer="layer1"
     showgrid="false"
     showguides="false">
    <sodipodi:guide
       position="52.589619,4.2881844"
       orientation="0,-1"
       id="guide1"
       inkscape:locked="false" />
    <sodipodi:guide
       position="61.187419,18.726455"
       orientation="0,-1"
       id="guide2"
       inkscape:locked="false" />
  </sodipodi:namedview>
  <defs
     id="defs1" />
  <g
     inkscape:label="Layer 1"
     inkscape:groupmode="layer"
     id="layer1"
     transform="translate(1.9560197)">
    <path
       style="font-style:italic;font-weight:500;font-size:14.0638px;line-height:1.25;font-family:'Alumni Sans';-inkscape-font-specification:'Alumni Sans Medium Italic';text-align:center;text-anchor:middle;fill:#2a7fff;stroke-width:0.264583"
       d="m 1.5388069,15.59369 q -1.31855137,0 -2.14875185,-0.366264 -0.83019895,-0.390683 -1.14762735,-1.318553 -0.3174302,-0.927869 -0.07325,-2.563851 l 0.1220898,-0.830201 H 0.22026077 L 0.0737599,11.467112 q -0.14650087,1.147627 -0.02441141,1.782484 0.14650076,0.610442 0.5371883,0.854618 0.39068062,0.244178 0.97670501,0.244178 0.7569449,0 1.3429692,-0.537189 Q 3.5166514,13.249596 3.7119917,11.808957 3.8829211,10.758999 3.6143135,10.246229 3.3701373,9.7090407 2.7841148,9.3916133 2.1980903,9.0741816 1.2702213,8.6834997 0.53769263,8.3416535 5.042337e-4,7.8777195 -0.53668239,7.4137847 -0.7564407,6.6812559 -0.97620078,5.9243093 -0.82969102,4.8010983 -0.63434914,3.4825469 -0.17041463,2.652348 0.31793788,1.7977313 1.1725546,1.382631 2.0515894,0.96753225 3.3945587,0.96753225 q 1.7580679,0 2.5882667,0.85461695 0.8302007,0.8301988 0.6104403,2.3929263 l -0.219758,1.6359816 q -0.4639344,0 -0.9522869,0 -0.4639345,0 -0.9034527,0 L 4.6642689,4.727846 Q 4.8351982,3.5802171 4.4689287,3.0186124 4.1270822,2.457006 3.2236295,2.457006 q -0.976705,0 -1.4650574,0.5616064 Q 1.2702196,3.5802171 1.0992956,4.752264 0.97720569,5.6312971 1.2213853,6.1440676 1.4899795,6.656838 2.0027502,6.9498502 2.5155205,7.2428606 3.1992132,7.5114548 4.2247542,7.9265549 4.8351947,8.3904897 5.4700533,8.8300064 5.6898115,9.5381168 5.9095698,10.246229 5.7142229,11.564781 5.5188809,13.054256 4.9084403,13.957709 4.2979998,14.836743 3.4189649,15.227426 2.539932,15.59369 1.5388069,15.59369 Z M 7.3990304,15.422762 9.4501094,0.99194323 H 11.330265 L 10.451233,7.1940211 h 3.735901 l 0.879023,-6.20207787 h 1.88017 L 14.895245,15.422762 h -1.88017 l 0.976719,-6.812519 h -3.735903 l -0.9767054,6.812519 z m 9.1565806,0 5.054454,-14.43081877 h 2.563852 L 25.10178,15.422762 h -2.075493 l -0.219769,-3.174294 h -3.149873 l -1.098791,3.174294 z m 3.296375,-4.150998 h 3.052211 l -0.36627,-8.2287389 z m 7.032266,4.150998 2.051084,-14.43081877 h 4.663755 q 1.294149,0 1.95342,0.61044077 0.659271,0.5860244 0.488343,1.8069055 L 35.6746,6.0219741 Q 35.552547,6.876591 35.21067,7.633538 34.868812,8.3904848 34.136291,8.8544191 33.428179,9.3183533 32.18287,9.3183533 h -2.466175 l -0.85461,6.1044087 z m 2.978945,-7.2032013 h 1.855742 q 0.879041,0 1.391811,-0.5860227 0.537181,-0.5860229 0.70811,-1.85574 L 34.038612,4.1662344 Q 34.209453,3.0674415 33.867768,2.5790888 33.550338,2.0663202 32.939889,2.0663202 h -2.197582 z m 6.470659,7.2032013 2.051081,-14.43081877 h 6.348585 L 44.513755,2.3349127 h -4.370754 l -0.683702,4.8346904 h 3.564982 L 42.804529,8.63466 H 39.26396 l -0.756933,5.46955 h 4.370754 l -0.195341,1.318552 z"
       id="text57"
       aria-label="SHAPE" />
    <path
       id="path57"
       style="font-size:11.6782px;line-height:1.25;font-family:'Suez One';-inkscape-font-specification:'Suez One, Normal';text-align:center;text-anchor:middle;fill:#0044aa;stroke-width:0.264583"
       d="m 89.674787,19.638572 q -2.228905,0 -3.372434,-0.697732 -1.124129,-0.697749 -1.124129,-2.054461 0,-1.434251 1.31796,-2.519625 -0.407013,-0.407014 -0.407013,-0.891547 0,-0.697748 0.910915,-1.976939 -1.589279,-0.833408 -1.589279,-2.8684842 0,-1.7831246 1.201668,-2.7522091 1.221052,-0.9884691 3.508094,-0.9884691 1.608679,0 2.635901,0.4845506 l 2.325799,-0.7171336 h 0.910949 v 2.8103462 h -1.511773 q 0.09691,0.484551 0.09691,0.9497165 0,1.7831077 -1.20167,2.7134237 -1.201666,0.930333 -3.527462,0.930333 -0.794656,0 -1.434251,-0.116342 v 0.271335 q 0,0.310106 0.251969,0.445782 0.271334,0.116342 1.143512,0.232582 l 1.744356,0.251969 q 2.05446,0.29072 2.829711,1.007836 0.794659,0.717134 0.794659,1.841263 0,1.744355 -1.434236,2.694056 -1.434265,0.949699 -4.070149,0.949699 z m 0.465151,-9.477647 q 0.407027,0 0.930332,-0.116341 0.07751,-0.2325676 0.135593,-0.697733 0.07751,-0.4651654 0.07751,-0.8527932 0,-0.8721771 -0.387643,-1.2985741 -0.368242,-0.4263965 -1.162899,-0.4263965 -0.387627,0 -0.852793,0.1163414 -0.09691,0.2325829 -0.174428,0.6783472 -0.05808,0.4457812 -0.05808,0.8528095 0,0.8915467 0.368243,1.3179428 0.368258,0.4263969 1.124145,0.4263969 z m 0.426397,7.287527 q 0.891563,0 1.356727,-0.155011 0.116342,-0.232583 0.116342,-0.62021 0,-0.465165 -0.329507,-0.717133 -0.329489,-0.232566 -1.182265,-0.348858 l -0.620227,-0.09692 q -0.852777,-0.09692 -1.724954,-0.271352 -0.116342,0.523303 -0.116342,0.833408 0,0.697749 0.62021,1.027238 0.620211,0.348875 1.880016,0.348875 z" />
    <path
       id="path58"
       style="font-size:11.6782px;line-height:1.25;font-family:'Suez One';-inkscape-font-specification:'Suez One, Normal';text-align:center;text-anchor:middle;fill:#0044aa;stroke-width:0.264583"
       d="m 57.718734,0.39256916 c -0.684803,0.0258902 -1.880213,0.19333405 -3.585816,0.503439 l -0.601223,0.0969064 -0.05825,1.47343784 0.853375,0.4451175 c 0.167989,0.1033963 0.270886,0.2003408 0.309606,0.2907418 0.03866,0.077505 0.05825,0.2586262 0.05825,0.5428906 V 13.08573 l -3.729046,0.0026 c -0.01,-8.32e-4 -0.02025,-0.0036 -0.03004,-0.0036 -0.503918,0 -0.84657,-0.103733 -1.027453,-0.310469 -0.167991,-0.206725 -0.252151,-0.791459 -0.252151,-1.411686 V 7.3695176 h 3.256475 V 5.0830586 H 49.655988 V 2.8926283 l -1.123515,-0.1355101 -2.125261,1.9357077 -0.0066,7.3671821 c 0,1.149987 0.271237,2.009557 0.813908,2.578086 0.535369,0.54809 1.361393,0.824502 2.475164,0.831916 l 37.760454,0.0016 v -2.389318 l -3.630411,0.0036 c -0.0083,-0.08862 -0.01328,-0.584944 -0.01328,-0.715276 V 8.5711812 c 0,-2.4550169 -1.027073,-3.6827342 -3.081533,-3.6827342 -0.439326,0 -0.911196,0.071365 -1.415114,0.2135534 -0.491008,0.1292865 -1.130369,0.3749492 -1.918552,0.7367191 -0.06459,-0.3230696 -0.14891,-0.6206692 -0.252189,-0.8920049 -0.74943,0.02589 -1.970333,0.206928 -3.663007,0.5428903 l -0.426247,0.077191 -0.05825,1.4537097 0.853357,0.4657018 c 0.168022,0.1033964 0.270872,0.2003409 0.309607,0.2907418 0.03866,0.077507 0.05825,0.2577679 0.05825,0.5420318 v 4.7668 h -3.321668 c -0.0083,-0.0853 -0.01161,-0.574856 -0.01161,-0.696409 V 6.1877031 C 70.840658,5.9163506 70.73693,5.5022887 70.569024,4.9466887 c -0.491005,0.013278 -1.033444,0.071531 -1.627814,0.17496 -0.581458,0.090451 -1.407845,0.2383767 -2.480309,0.4451189 l -0.09693,1.4537098 0.852511,0.4657019 c 0.180935,0.1033963 0.290604,0.2003408 0.329324,0.2907417 0.05162,0.077507 0.07718,0.2577679 0.07718,0.5420323 v 4.7667997 h -3.320805 c -0.0083,-0.0858 -0.01328,-0.573428 -0.01328,-0.696409 V 8.5711015 c 0,-2.4550157 -1.007488,-3.6827328 -3.023196,-3.6827328 -0.490991,0 -0.988371,0.078169 -1.492304,0.23328 -0.49099,0.1420658 -1.092116,0.3742321 -1.802776,0.6972658 V 1.4003218 C 57.918997,1.0385188 57.835689,0.70269083 57.719331,0.39258573 Z m 2.03433,7.07386864 c 0.426396,0 0.730775,0.064558 0.911676,0.1938273 0.180835,0.1292865 0.283734,0.316264 0.309624,0.5617587 0.03866,0.2325822 0.05825,0.6338921 0.05825,1.2024213 v 3.6612919 h -3.049801 c -0.0083,-0.0858 -0.01327,-0.573428 -0.01327,-0.696409 V 7.6799913 c 0.775274,-0.142066 1.36956,-0.2135535 1.783045,-0.2135535 z m 19.498594,0 h 8.63e-4 c 0.438827,8.92e-5 0.742077,0.064643 0.909951,0.1938273 0.180918,0.1292865 0.290588,0.3103066 0.32934,0.5428898 0.03866,0.2325833 0.05825,0.6398317 0.05825,1.2212902 v 3.6612919 h -3.048937 c -0.0083,-0.08862 -0.01327,-0.584944 -0.01327,-0.715277 V 7.6799913 c 0.710284,-0.1419825 1.298314,-0.2134718 1.76333,-0.2135535 z"
       sodipodi:nodetypes="scccccsccscscccccccccccccsssccccccccsccscccccccsccsssccccssccsccscsssccsccscsss" />
    <path
       style="font-size:11.6782px;line-height:1.25;font-family:'Suez One';-inkscape-font-specification:'Suez One, Normal';text-align:center;text-anchor:middle;fill:#d400aa;fill-opacity:1;stroke-width:0.264583"
       d="M 67.079924,0.87709143 70.374786,0.00491385 71.169459,2.95092 67.893929,3.8424824 Z"
       id="path59" />
  </g>
</svg>
